<svg width="283" height="28" viewBox="0 0 283 28" fill="none" xmlns="http://www.w3.org/2000/svg">
<path d="M13.0781 15.7773V18.2148H0.785156L0.65625 16.3398L7.88672 4.9375H10.3594L7.6875 9.47266L3.80859 15.7773H13.0781ZM11.0508 4.9375V22H7.94531V4.9375H11.0508ZM15.2344 20.4883C15.2344 20.0195 15.3945 19.625 15.7148 19.3047C16.0352 18.9844 16.4688 18.8242 17.0156 18.8242C17.5625 18.8242 17.9961 18.9844 18.3164 19.3047C18.6367 19.625 18.7969 20.0195 18.7969 20.4883C18.7969 20.9492 18.6367 21.3398 18.3164 21.6602C17.9961 21.9727 17.5625 22.1289 17.0156 22.1289C16.4688 22.1289 16.0352 21.9727 15.7148 21.6602C15.3945 21.3398 15.2344 20.9492 15.2344 20.4883ZM24.0938 19.5977H24.3164C25.3242 19.5977 26.1758 19.4688 26.8711 19.2109C27.5742 18.9531 28.1406 18.5898 28.5703 18.1211C29.0078 17.6445 29.3242 17.0781 29.5195 16.4219C29.7227 15.7578 29.8242 15.0234 29.8242 14.2188V11.125C29.8242 10.4688 29.7578 9.89453 29.625 9.40234C29.4922 8.90234 29.3047 8.48438 29.0625 8.14844C28.8281 7.8125 28.5508 7.5625 28.2305 7.39844C27.9102 7.22656 27.5664 7.14062 27.1992 7.14062C26.793 7.14062 26.4336 7.23438 26.1211 7.42188C25.8086 7.60938 25.543 7.86719 25.3242 8.19531C25.1133 8.51562 24.9492 8.88672 24.832 9.30859C24.7227 9.73047 24.668 10.1758 24.668 10.6445C24.668 11.0977 24.7188 11.5312 24.8203 11.9453C24.9297 12.3594 25.0898 12.7266 25.3008 13.0469C25.5195 13.3672 25.793 13.6211 26.1211 13.8086C26.4492 13.9883 26.832 14.0781 27.2695 14.0781C27.6836 14.0781 28.0586 14 28.3945 13.8438C28.7383 13.6797 29.0352 13.4648 29.2852 13.1992C29.5352 12.9258 29.7266 12.625 29.8594 12.2969C30 11.9609 30.0781 11.6211 30.0938 11.2773L31.1836 11.7461C31.1836 12.3164 31.0625 12.8789 30.8203 13.4336C30.5859 13.9883 30.2539 14.4922 29.8242 14.9453C29.4023 15.3906 28.9102 15.75 28.3477 16.0234C27.7852 16.2891 27.1797 16.4219 26.5312 16.4219C25.7266 16.4219 25.0156 16.2734 24.3984 15.9766C23.7812 15.6797 23.2617 15.2695 22.8398 14.7461C22.4258 14.2148 22.1133 13.6055 21.9023 12.918C21.6914 12.2227 21.5859 11.4805 21.5859 10.6914C21.5859 9.87109 21.7148 9.10156 21.9727 8.38281C22.2305 7.65625 22.6016 7.01953 23.0859 6.47266C23.5781 5.91797 24.1719 5.48438 24.8672 5.17188C25.5625 4.85156 26.3438 4.69141 27.2109 4.69141C28.1094 4.69141 28.9102 4.86719 29.6133 5.21875C30.3164 5.57031 30.9141 6.05859 31.4062 6.68359C31.8984 7.30078 32.2734 8.03125 32.5312 8.875C32.7969 9.71875 32.9297 10.6406 32.9297 11.6406V12.7305C32.9297 13.7852 32.8242 14.7852 32.6133 15.7305C32.4023 16.6758 32.0781 17.5391 31.6406 18.3203C31.2031 19.1016 30.6445 19.7773 29.9648 20.3477C29.293 20.918 28.4883 21.3594 27.5508 21.6719C26.6211 21.9766 25.5586 22.1289 24.3633 22.1289H24.0938V19.5977Z" fill="black"/>
<path d="M50.1037 5.81663C50.4705 5.07346 51.5302 5.07346 51.8971 5.81663L53.8579 9.78909C54.0035 10.0839 54.2846 10.2884 54.61 10.336L58.9966 10.9771C59.8165 11.097 60.1433 12.1048 59.5497 12.683L56.3772 15.773C56.1413 16.0027 56.0336 16.3339 56.0893 16.6584L56.8378 21.0226C56.9779 21.8396 56.1204 22.4626 55.3867 22.0767L51.4658 20.0148C51.1744 19.8615 50.8263 19.8615 50.5349 20.0148L46.614 22.0767C45.8804 22.4625 45.0228 21.8396 45.1629 21.0226L45.9115 16.6584C45.9671 16.3339 45.8595 16.0027 45.6236 15.773L42.451 12.683C41.8575 12.1048 42.1842 11.097 43.0042 10.9771L47.3907 10.336C47.7161 10.2884 47.9973 10.0839 48.1428 9.78909L50.1037 5.81663Z" fill="#FDC102"/>
<path d="M76.1037 5.81663C76.4705 5.07346 77.5302 5.07346 77.8971 5.81663L79.8579 9.78909C80.0035 10.0839 80.2846 10.2884 80.61 10.336L84.9966 10.9771C85.8165 11.097 86.1433 12.1048 85.5497 12.683L82.3772 15.773C82.1413 16.0027 82.0336 16.3339 82.0893 16.6584L82.8378 21.0226C82.9779 21.8396 82.1204 22.4626 81.3867 22.0767L77.4658 20.0148C77.1744 19.8615 76.8263 19.8615 76.5349 20.0148L72.614 22.0767C71.8804 22.4625 71.0228 21.8396 71.1629 21.0226L71.9115 16.6584C71.9671 16.3339 71.8595 16.0027 71.6236 15.773L68.451 12.683C67.8575 12.1048 68.1842 11.097 69.0042 10.9771L73.3907 10.336C73.7161 10.2884 73.9973 10.0839 74.1428 9.78909L76.1037 5.81663Z" fill="#FDC102"/>
<path d="M102.104 5.81663C102.47 5.07346 103.53 5.07346 103.897 5.81663L105.858 9.78909C106.003 10.0839 106.285 10.2884 106.61 10.336L110.997 10.9771C111.817 11.097 112.143 12.1048 111.55 12.683L108.377 15.773C108.141 16.0027 108.034 16.3339 108.089 16.6584L108.838 21.0226C108.978 21.8396 108.12 22.4626 107.387 22.0767L103.466 20.0148C103.174 19.8615 102.826 19.8615 102.535 20.0148L98.614 22.0767C97.8804 22.4625 97.0228 21.8396 97.1629 21.0226L97.9115 16.6584C97.9671 16.3339 97.8595 16.0027 97.6236 15.773L94.451 12.683C93.8575 12.1048 94.1842 11.097 95.0042 10.9771L99.3907 10.336C99.7161 10.2884 99.9973 10.0839 100.143 9.78909L102.104 5.81663Z" fill="#FDC102"/>
<path d="M128.104 5.81663C128.47 5.07346 129.53 5.07346 129.897 5.81663L131.858 9.78909C132.003 10.0839 132.285 10.2884 132.61 10.336L136.997 10.9771C137.817 11.097 138.143 12.1048 137.55 12.683L134.377 15.773C134.141 16.0027 134.034 16.3339 134.089 16.6584L134.838 21.0226C134.978 21.8396 134.12 22.4626 133.387 22.0767L129.466 20.0148C129.174 19.8615 128.826 19.8615 128.535 20.0148L124.614 22.0767C123.88 22.4625 123.023 21.8396 123.163 21.0226L123.911 16.6584C123.967 16.3339 123.859 16.0027 123.624 15.773L120.451 12.683C119.857 12.1048 120.184 11.097 121.004 10.9771L125.391 10.336C125.716 10.2884 125.997 10.0839 126.143 9.78909L128.104 5.81663Z" fill="#FDC102"/>
<path d="M154.104 5.81663C154.47 5.07346 155.53 5.07346 155.897 5.81663L157.858 9.78909C158.003 10.0839 158.285 10.2884 158.61 10.336L162.997 10.9771C163.817 11.097 164.143 12.1048 163.55 12.683L160.377 15.773C160.141 16.0027 160.034 16.3339 160.089 16.6584L160.838 21.0226C160.978 21.8396 160.12 22.4626 159.387 22.0767L155.466 20.0148C155.174 19.8615 154.826 19.8615 154.535 20.0148L150.614 22.0767C149.88 22.4625 149.023 21.8396 149.163 21.0226L149.911 16.6584C149.967 16.3339 149.859 16.0027 149.624 15.773L146.451 12.683C145.857 12.1048 146.184 11.097 147.004 10.9771L151.391 10.336C151.716 10.2884 151.997 10.0839 152.143 9.78909L154.104 5.81663Z" fill="#FDC102"/>
<path d="M192.304 7.68555H192.444V9.06543H192.304C191.442 9.06543 190.722 9.20605 190.142 9.4873C189.562 9.7627 189.102 10.1348 188.762 10.6035C188.422 11.0664 188.176 11.5879 188.023 12.168C187.877 12.748 187.804 13.3369 187.804 13.9346V15.8154C187.804 16.3838 187.871 16.8877 188.006 17.3271C188.141 17.7607 188.325 18.127 188.56 18.4258C188.794 18.7246 189.058 18.9502 189.351 19.1025C189.649 19.2549 189.96 19.3311 190.282 19.3311C190.657 19.3311 190.991 19.2607 191.284 19.1201C191.577 18.9736 191.823 18.7715 192.022 18.5137C192.228 18.25 192.383 17.9395 192.488 17.582C192.594 17.2246 192.646 16.832 192.646 16.4043C192.646 16.0234 192.6 15.6572 192.506 15.3057C192.412 14.9482 192.269 14.6318 192.075 14.3564C191.882 14.0752 191.639 13.8555 191.346 13.6973C191.059 13.5332 190.716 13.4512 190.317 13.4512C189.866 13.4512 189.444 13.5625 189.052 13.7852C188.665 14.002 188.346 14.2891 188.094 14.6465C187.848 14.998 187.707 15.3818 187.672 15.7979L186.811 15.7891C186.893 15.1328 187.045 14.5732 187.268 14.1104C187.496 13.6416 187.777 13.2607 188.111 12.9678C188.451 12.6689 188.829 12.4521 189.245 12.3174C189.667 12.1768 190.112 12.1064 190.581 12.1064C191.22 12.1064 191.771 12.2266 192.233 12.4668C192.696 12.707 193.077 13.0293 193.376 13.4336C193.675 13.832 193.895 14.2832 194.035 14.7871C194.182 15.2852 194.255 15.7979 194.255 16.3252C194.255 16.9287 194.17 17.4941 194 18.0215C193.83 18.5488 193.575 19.0117 193.235 19.4102C192.901 19.8086 192.488 20.1191 191.996 20.3418C191.504 20.5645 190.933 20.6758 190.282 20.6758C189.591 20.6758 188.987 20.5352 188.472 20.2539C187.956 19.9668 187.528 19.5859 187.188 19.1113C186.849 18.6367 186.594 18.1094 186.424 17.5293C186.254 16.9492 186.169 16.3604 186.169 15.7627V14.998C186.169 14.0957 186.26 13.2109 186.441 12.3438C186.623 11.4766 186.937 10.6914 187.382 9.98828C187.833 9.28516 188.457 8.72559 189.254 8.30957C190.051 7.89355 191.067 7.68555 192.304 7.68555ZM204.222 13.082V15.0332C204.222 16.082 204.128 16.9668 203.94 17.6875C203.753 18.4082 203.483 18.9883 203.132 19.4277C202.78 19.8672 202.355 20.1865 201.857 20.3857C201.365 20.5791 200.809 20.6758 200.188 20.6758C199.695 20.6758 199.241 20.6143 198.825 20.4912C198.409 20.3682 198.034 20.1719 197.7 19.9023C197.372 19.627 197.091 19.2695 196.856 18.8301C196.622 18.3906 196.443 17.8574 196.32 17.2305C196.197 16.6035 196.136 15.8711 196.136 15.0332V13.082C196.136 12.0332 196.229 11.1543 196.417 10.4453C196.61 9.73633 196.883 9.16797 197.234 8.74023C197.586 8.30664 198.008 7.99609 198.5 7.80859C198.998 7.62109 199.555 7.52734 200.17 7.52734C200.668 7.52734 201.125 7.58887 201.541 7.71191C201.963 7.8291 202.338 8.01953 202.666 8.2832C202.994 8.54102 203.272 8.88672 203.501 9.32031C203.735 9.74805 203.914 10.2725 204.037 10.8936C204.16 11.5146 204.222 12.2441 204.222 13.082ZM202.587 15.2969V12.8096C202.587 12.2354 202.552 11.7314 202.481 11.2979C202.417 10.8584 202.32 10.4834 202.191 10.1729C202.062 9.8623 201.898 9.61035 201.699 9.41699C201.506 9.22363 201.28 9.08301 201.022 8.99512C200.771 8.90137 200.486 8.85449 200.17 8.85449C199.783 8.85449 199.44 8.92773 199.142 9.07422C198.843 9.21484 198.591 9.44043 198.386 9.75098C198.187 10.0615 198.034 10.4688 197.929 10.9727C197.823 11.4766 197.771 12.0889 197.771 12.8096V15.2969C197.771 15.8711 197.803 16.3779 197.867 16.8174C197.938 17.2568 198.04 17.6377 198.175 17.96C198.31 18.2764 198.474 18.5371 198.667 18.7422C198.86 18.9473 199.083 19.0996 199.335 19.1992C199.593 19.293 199.877 19.3398 200.188 19.3398C200.586 19.3398 200.935 19.2637 201.233 19.1113C201.532 18.959 201.781 18.7217 201.98 18.3994C202.186 18.0713 202.338 17.6523 202.438 17.1426C202.537 16.627 202.587 16.0117 202.587 15.2969ZM210.523 15.8506V15.6484C210.523 14.9629 210.623 14.3271 210.822 13.7412C211.021 13.1494 211.309 12.6367 211.684 12.2031C212.059 11.7637 212.513 11.4238 213.046 11.1836C213.579 10.9375 214.177 10.8145 214.839 10.8145C215.507 10.8145 216.107 10.9375 216.641 11.1836C217.18 11.4238 217.637 11.7637 218.012 12.2031C218.393 12.6367 218.683 13.1494 218.882 13.7412C219.081 14.3271 219.181 14.9629 219.181 15.6484V15.8506C219.181 16.5361 219.081 17.1719 218.882 17.7578C218.683 18.3438 218.393 18.8564 218.012 19.2959C217.637 19.7295 217.183 20.0693 216.649 20.3154C216.122 20.5557 215.524 20.6758 214.856 20.6758C214.188 20.6758 213.588 20.5557 213.055 20.3154C212.521 20.0693 212.064 19.7295 211.684 19.2959C211.309 18.8564 211.021 18.3438 210.822 17.7578C210.623 17.1719 210.523 16.5361 210.523 15.8506ZM212.149 15.6484V15.8506C212.149 16.3252 212.205 16.7734 212.316 17.1953C212.428 17.6113 212.595 17.9805 212.817 18.3027C213.046 18.625 213.33 18.8799 213.67 19.0674C214.01 19.249 214.405 19.3398 214.856 19.3398C215.302 19.3398 215.691 19.249 216.025 19.0674C216.365 18.8799 216.646 18.625 216.869 18.3027C217.092 17.9805 217.259 17.6113 217.37 17.1953C217.487 16.7734 217.546 16.3252 217.546 15.8506V15.6484C217.546 15.1797 217.487 14.7373 217.37 14.3213C217.259 13.8994 217.089 13.5273 216.86 13.2051C216.638 12.877 216.356 12.6191 216.017 12.4316C215.683 12.2441 215.29 12.1504 214.839 12.1504C214.394 12.1504 214.001 12.2441 213.661 12.4316C213.327 12.6191 213.046 12.877 212.817 13.2051C212.595 13.5273 212.428 13.8994 212.316 14.3213C212.205 14.7373 212.149 15.1797 212.149 15.6484ZM224.902 10.9902V20.5H223.268V10.9902H224.902ZM228.093 10.9902V12.3086H220.139V10.9902H228.093ZM233.243 15.9561H231.494V14.9541H233.111C233.562 14.9541 233.92 14.8984 234.184 14.7871C234.447 14.6699 234.635 14.5088 234.746 14.3037C234.857 14.0986 234.913 13.8584 234.913 13.583C234.913 13.3369 234.849 13.1055 234.72 12.8887C234.597 12.666 234.397 12.4873 234.122 12.3525C233.847 12.2119 233.478 12.1416 233.015 12.1416C232.64 12.1416 232.3 12.209 231.995 12.3438C231.69 12.4727 231.447 12.6514 231.266 12.8799C231.09 13.1025 231.002 13.3545 231.002 13.6357H229.376C229.376 13.0557 229.54 12.5576 229.868 12.1416C230.202 11.7197 230.645 11.3945 231.195 11.166C231.752 10.9375 232.358 10.8232 233.015 10.8232C233.565 10.8232 234.058 10.8848 234.491 11.0078C234.931 11.125 235.303 11.3008 235.607 11.5352C235.912 11.7637 236.144 12.0508 236.302 12.3965C236.466 12.7363 236.548 13.1318 236.548 13.583C236.548 13.9053 236.472 14.21 236.319 14.4971C236.167 14.7842 235.947 15.0391 235.66 15.2617C235.373 15.4785 235.024 15.6484 234.614 15.7715C234.21 15.8945 233.753 15.9561 233.243 15.9561ZM231.494 15.3408H233.243C233.812 15.3408 234.312 15.3965 234.746 15.5078C235.18 15.6133 235.543 15.7715 235.836 15.9824C236.129 16.1934 236.349 16.4541 236.495 16.7646C236.647 17.0693 236.724 17.4209 236.724 17.8193C236.724 18.2646 236.633 18.666 236.451 19.0234C236.275 19.375 236.023 19.6738 235.695 19.9199C235.367 20.166 234.975 20.3535 234.518 20.4824C234.066 20.6113 233.565 20.6758 233.015 20.6758C232.399 20.6758 231.802 20.5703 231.222 20.3594C230.642 20.1484 230.164 19.8232 229.789 19.3838C229.414 18.9385 229.227 18.373 229.227 17.6875H230.853C230.853 17.9746 230.943 18.2471 231.125 18.5049C231.307 18.7627 231.559 18.9707 231.881 19.1289C232.209 19.2871 232.587 19.3662 233.015 19.3662C233.472 19.3662 233.853 19.2959 234.157 19.1553C234.462 19.0146 234.69 18.8271 234.843 18.5928C235.001 18.3584 235.08 18.1035 235.08 17.8281C235.08 17.4707 235.01 17.1836 234.869 16.9668C234.729 16.75 234.512 16.5918 234.219 16.4922C233.932 16.3867 233.562 16.334 233.111 16.334H231.494V15.3408ZM240.169 14.2598H243.025C243.793 14.2598 244.44 14.3945 244.968 14.6641C245.495 14.9277 245.894 15.2939 246.163 15.7627C246.438 16.2256 246.576 16.7529 246.576 17.3447C246.576 17.7842 246.5 18.1973 246.348 18.584C246.195 18.9648 245.967 19.2988 245.662 19.5859C245.363 19.873 244.991 20.0986 244.546 20.2627C244.106 20.4209 243.6 20.5 243.025 20.5H238.982V10.9902H240.608V19.1641H243.025C243.494 19.1641 243.869 19.0791 244.15 18.9092C244.432 18.7393 244.634 18.5195 244.757 18.25C244.88 17.9805 244.941 17.6992 244.941 17.4062C244.941 17.1191 244.88 16.8379 244.757 16.5625C244.634 16.2871 244.432 16.0586 244.15 15.877C243.869 15.6895 243.494 15.5957 243.025 15.5957H240.169V14.2598ZM249.96 10.9902V20.5H248.334V10.9902H249.96ZM257.272 16.3164H254.152L254.135 15.0156H256.684C257.188 15.0156 257.606 14.9658 257.94 14.8662C258.28 14.7666 258.535 14.6172 258.705 14.418C258.875 14.2188 258.96 13.9727 258.96 13.6797C258.96 13.4512 258.91 13.252 258.811 13.082C258.717 12.9062 258.573 12.7627 258.38 12.6514C258.187 12.5342 257.946 12.4492 257.659 12.3965C257.378 12.3379 257.047 12.3086 256.666 12.3086H254.583V20.5H252.957V10.9902H256.666C257.27 10.9902 257.812 11.043 258.292 11.1484C258.778 11.2539 259.191 11.415 259.531 11.6318C259.877 11.8428 260.141 12.1123 260.322 12.4404C260.504 12.7686 260.595 13.1553 260.595 13.6006C260.595 13.8877 260.536 14.1602 260.419 14.418C260.302 14.6758 260.129 14.9043 259.9 15.1035C259.672 15.3027 259.391 15.4668 259.057 15.5957C258.723 15.7188 258.339 15.7979 257.905 15.833L257.272 16.3164ZM257.272 20.5H253.563L254.372 19.1816H257.272C257.724 19.1816 258.099 19.126 258.397 19.0146C258.696 18.8975 258.919 18.7334 259.065 18.5225C259.218 18.3057 259.294 18.0479 259.294 17.749C259.294 17.4502 259.218 17.1953 259.065 16.9844C258.919 16.7676 258.696 16.6035 258.397 16.4922C258.099 16.375 257.724 16.3164 257.272 16.3164H254.803L254.82 15.0156H257.905L258.494 15.5078C259.016 15.5488 259.458 15.6777 259.821 15.8945C260.185 16.1113 260.46 16.3867 260.647 16.7207C260.835 17.0488 260.929 17.4062 260.929 17.793C260.929 18.2383 260.844 18.6309 260.674 18.9707C260.51 19.3105 260.27 19.5947 259.953 19.8232C259.637 20.0459 259.253 20.2158 258.802 20.333C258.351 20.4443 257.841 20.5 257.272 20.5ZM262.678 15.8506V15.6484C262.678 14.9629 262.777 14.3271 262.977 13.7412C263.176 13.1494 263.463 12.6367 263.838 12.2031C264.213 11.7637 264.667 11.4238 265.2 11.1836C265.733 10.9375 266.331 10.8145 266.993 10.8145C267.661 10.8145 268.262 10.9375 268.795 11.1836C269.334 11.4238 269.791 11.7637 270.166 12.2031C270.547 12.6367 270.837 13.1494 271.036 13.7412C271.235 14.3271 271.335 14.9629 271.335 15.6484V15.8506C271.335 16.5361 271.235 17.1719 271.036 17.7578C270.837 18.3438 270.547 18.8564 270.166 19.2959C269.791 19.7295 269.337 20.0693 268.804 20.3154C268.276 20.5557 267.679 20.6758 267.011 20.6758C266.343 20.6758 265.742 20.5557 265.209 20.3154C264.676 20.0693 264.219 19.7295 263.838 19.2959C263.463 18.8564 263.176 18.3438 262.977 17.7578C262.777 17.1719 262.678 16.5361 262.678 15.8506ZM264.304 15.6484V15.8506C264.304 16.3252 264.359 16.7734 264.471 17.1953C264.582 17.6113 264.749 17.9805 264.972 18.3027C265.2 18.625 265.484 18.8799 265.824 19.0674C266.164 19.249 266.56 19.3398 267.011 19.3398C267.456 19.3398 267.846 19.249 268.18 19.0674C268.52 18.8799 268.801 18.625 269.023 18.3027C269.246 17.9805 269.413 17.6113 269.524 17.1953C269.642 16.7734 269.7 16.3252 269.7 15.8506V15.6484C269.7 15.1797 269.642 14.7373 269.524 14.3213C269.413 13.8994 269.243 13.5273 269.015 13.2051C268.792 12.877 268.511 12.6191 268.171 12.4316C267.837 12.2441 267.444 12.1504 266.993 12.1504C266.548 12.1504 266.155 12.2441 265.815 12.4316C265.481 12.6191 265.2 12.877 264.972 13.2051C264.749 13.5273 264.582 13.8994 264.471 14.3213C264.359 14.7373 264.304 15.1797 264.304 15.6484ZM277.839 16.3164H274.719L274.701 15.0156H277.25C277.754 15.0156 278.173 14.9658 278.507 14.8662C278.847 14.7666 279.102 14.6172 279.271 14.418C279.441 14.2188 279.526 13.9727 279.526 13.6797C279.526 13.4512 279.477 13.252 279.377 13.082C279.283 12.9062 279.14 12.7627 278.946 12.6514C278.753 12.5342 278.513 12.4492 278.226 12.3965C277.944 12.3379 277.613 12.3086 277.232 12.3086H275.149V20.5H273.523V10.9902H277.232C277.836 10.9902 278.378 11.043 278.858 11.1484C279.345 11.2539 279.758 11.415 280.098 11.6318C280.443 11.8428 280.707 12.1123 280.889 12.4404C281.07 12.7686 281.161 13.1553 281.161 13.6006C281.161 13.8877 281.103 14.1602 280.985 14.418C280.868 14.6758 280.695 14.9043 280.467 15.1035C280.238 15.3027 279.957 15.4668 279.623 15.5957C279.289 15.7188 278.905 15.7979 278.472 15.833L277.839 16.3164ZM277.839 20.5H274.13L274.938 19.1816H277.839C278.29 19.1816 278.665 19.126 278.964 19.0146C279.263 18.8975 279.485 18.7334 279.632 18.5225C279.784 18.3057 279.86 18.0479 279.86 17.749C279.86 17.4502 279.784 17.1953 279.632 16.9844C279.485 16.7676 279.263 16.6035 278.964 16.4922C278.665 16.375 278.29 16.3164 277.839 16.3164H275.369L275.387 15.0156H278.472L279.061 15.5078C279.582 15.5488 280.024 15.6777 280.388 15.8945C280.751 16.1113 281.026 16.3867 281.214 16.7207C281.401 17.0488 281.495 17.4062 281.495 17.793C281.495 18.2383 281.41 18.6309 281.24 18.9707C281.076 19.3105 280.836 19.5947 280.52 19.8232C280.203 20.0459 279.819 20.2158 279.368 20.333C278.917 20.4443 278.407 20.5 277.839 20.5Z" fill="#999999"/>
</svg>
