<svg width="100" height="20" viewBox="0 0 100 20" fill="none" xmlns="http://www.w3.org/2000/svg">
<path d="M9.10362 3.48338C9.47045 2.74021 10.5302 2.74021 10.897 3.48338L12.3429 6.4125C12.4884 6.70735 12.7696 6.91181 13.095 6.95937L16.3299 7.4322C17.1498 7.55204 17.4766 8.55988 16.883 9.13804L14.5438 11.4164C14.3079 11.6462 14.2002 11.9773 14.2559 12.3018L14.8078 15.5194C14.9479 16.3363 14.0903 16.9593 13.3567 16.5735L10.4658 15.0532C10.1744 14.9 9.82626 14.9 9.53487 15.0532L6.64396 16.5735C5.91033 16.9593 5.05278 16.3363 5.1929 15.5194L5.74475 12.3018C5.80041 11.9773 5.69274 11.6462 5.45687 11.4164L3.11767 9.13804C2.52408 8.55988 2.85086 7.55204 3.67078 7.4322L6.90569 6.95937C7.23105 6.91181 7.51223 6.70735 7.65777 6.4125L9.10362 3.48338Z" fill="#FDC102"/>
<path d="M29.1036 3.48338C29.4705 2.74021 30.5302 2.74021 30.897 3.48338L32.3429 6.4125C32.4884 6.70735 32.7696 6.91181 33.095 6.95937L36.3299 7.4322C37.1498 7.55204 37.4766 8.55988 36.883 9.13804L34.5438 11.4164C34.3079 11.6462 34.2002 11.9773 34.2559 12.3018L34.8078 15.5194C34.9479 16.3363 34.0903 16.9593 33.3567 16.5735L30.4658 15.0532C30.1744 14.9 29.8263 14.9 29.5349 15.0532L26.644 16.5735C25.9103 16.9593 25.0528 16.3363 25.1929 15.5194L25.7447 12.3018C25.8004 11.9773 25.6927 11.6462 25.4569 11.4164L23.1177 9.13804C22.5241 8.55988 22.8509 7.55204 23.6708 7.4322L26.9057 6.95937C27.231 6.91181 27.5122 6.70735 27.6578 6.4125L29.1036 3.48338Z" fill="#FDC102"/>
<path d="M49.1036 3.48338C49.4705 2.74021 50.5302 2.74021 50.897 3.48338L52.3429 6.4125C52.4884 6.70735 52.7696 6.91181 53.095 6.95937L56.3299 7.4322C57.1498 7.55204 57.4766 8.55988 56.883 9.13804L54.5438 11.4164C54.3079 11.6462 54.2002 11.9773 54.2559 12.3018L54.8078 15.5194C54.9479 16.3363 54.0903 16.9593 53.3567 16.5735L50.4658 15.0532C50.1744 14.9 49.8263 14.9 49.5349 15.0532L46.644 16.5735C45.9103 16.9593 45.0528 16.3363 45.1929 15.5194L45.7447 12.3018C45.8004 11.9773 45.6927 11.6462 45.4569 11.4164L43.1177 9.13804C42.5241 8.55988 42.8509 7.55204 43.6708 7.4322L46.9057 6.95937C47.231 6.91181 47.5122 6.70735 47.6578 6.4125L49.1036 3.48338Z" fill="#FDC102"/>
<path d="M69.1036 3.48338C69.4705 2.74021 70.5302 2.74021 70.897 3.48338L72.3429 6.4125C72.4884 6.70735 72.7696 6.91181 73.095 6.95937L76.3299 7.4322C77.1498 7.55204 77.4766 8.55988 76.883 9.13804L74.5438 11.4164C74.3079 11.6462 74.2002 11.9773 74.2559 12.3018L74.8078 15.5194C74.9479 16.3363 74.0903 16.9593 73.3567 16.5735L70.4658 15.0532C70.1744 14.9 69.8263 14.9 69.5349 15.0532L66.644 16.5735C65.9103 16.9593 65.0528 16.3363 65.1929 15.5194L65.7447 12.3018C65.8004 11.9773 65.6927 11.6462 65.4569 11.4164L63.1177 9.13804C62.5241 8.55988 62.8509 7.55204 63.6708 7.4322L66.9057 6.95937C67.231 6.91181 67.5122 6.70735 67.6578 6.4125L69.1036 3.48338Z" fill="#FDC102"/>
<path d="M89.1036 3.48338C89.4705 2.74021 90.5302 2.74021 90.897 3.48338L92.3429 6.4125C92.4884 6.70735 92.7696 6.91181 93.095 6.95937L96.3299 7.4322C97.1498 7.55204 97.4766 8.55988 96.883 9.13804L94.5438 11.4164C94.3079 11.6462 94.2002 11.9773 94.2559 12.3018L94.8078 15.5194C94.9479 16.3363 94.0903 16.9593 93.3567 16.5735L90.4658 15.0532C90.1744 14.9 89.8263 14.9 89.5349 15.0532L86.644 16.5735C85.9103 16.9593 85.0528 16.3363 85.1929 15.5194L85.7447 12.3018C85.8004 11.9773 85.6927 11.6462 85.4569 11.4164L83.1177 9.13804C82.5241 8.55988 82.8509 7.55204 83.6708 7.4322L86.9057 6.95937C87.231 6.91181 87.5122 6.70735 87.6578 6.4125L89.1036 3.48338Z" fill="#DEDEDE"/>
</svg>
