<svg width="131" height="32" viewBox="0 0 131 32" fill="none" xmlns="http://www.w3.org/2000/svg">
<path d="M21.5 10V13.5C21.6326 13.5 21.7598 13.5527 21.8535 13.6464C21.9473 13.7402 22 13.8674 22 14C22 14.1326 21.9473 14.2598 21.8535 14.3536C21.7598 14.4473 21.6326 14.5 21.5 14.5C21.3674 14.5 21.2402 14.4473 21.1464 14.3536C21.0527 14.2598 21 14.1326 21 14C21 13.8674 21.0527 13.7402 21.1464 13.6464C21.2402 13.5527 21.3674 13.5 21.5 13.5V10H11.5V13.5C11.6326 13.5 11.7598 13.5527 11.8535 13.6464C11.9473 13.7402 12 13.8674 12 14C12 14.1326 11.9473 14.2598 11.8535 14.3536C11.7598 14.4473 11.6326 14.5 11.5 14.5C11.3674 14.5 11.2402 14.4473 11.1464 14.3536C11.0527 14.2598 11 14.1326 11 14C11 13.8674 11.0527 13.7402 11.1464 13.6464C11.2402 13.5527 11.3674 13.5 11.5 13.5V10H7.85065C7.48002 9.99993 7.12248 10.1371 6.84698 10.385C6.57148 10.6329 6.39752 10.9741 6.35865 11.3427L4.67331 27.3427C4.65125 27.5519 4.67344 27.7634 4.73845 27.9635C4.80347 28.1636 4.90984 28.3478 5.05068 28.5041C5.19151 28.6604 5.36365 28.7853 5.55591 28.8708C5.74817 28.9562 5.95626 29.0002 6.16665 29H26.8333C27.7253 29 28.4186 28.2293 28.3253 27.3427L26.6413 11.3427C26.5613 10.58 25.9173 10 25.1493 10H21.5Z" fill="#1E90FF"/>
<path d="M21.5 14V10M11.5 14V10M11.5 13.5C11.3674 13.5 11.2402 13.5527 11.1464 13.6464C11.0527 13.7402 11 13.8674 11 14C11 14.1326 11.0527 14.2598 11.1464 14.3536C11.2402 14.4473 11.3674 14.5 11.5 14.5C11.6326 14.5 11.7598 14.4473 11.8535 14.3536C11.9473 14.2598 12 14.1326 12 14C12 13.8674 11.9473 13.7402 11.8535 13.6464C11.7598 13.5527 11.6326 13.5 11.5 13.5ZM11.5 13.5V10M21.5 13.5C21.3674 13.5 21.2402 13.5527 21.1464 13.6464C21.0527 13.7402 21 13.8674 21 14C21 14.1326 21.0527 14.2598 21.1464 14.3536C21.2402 14.4473 21.3674 14.5 21.5 14.5C21.6326 14.5 21.7598 14.4473 21.8535 14.3536C21.9473 14.2598 22 14.1326 22 14C22 13.8674 21.9473 13.7402 21.8535 13.6464C21.7598 13.5527 21.6326 13.5 21.5 13.5ZM21.5 13.5V10M21.5 10H11.5M21.5 10H25.1493C25.9173 10 26.5613 10.58 26.6413 11.3427L28.3253 27.3427C28.4186 28.2293 27.7253 29 26.8333 29H6.16665C5.95626 29.0002 5.74817 28.9562 5.55591 28.8708C5.36365 28.7853 5.19151 28.6604 5.05068 28.5041C4.90984 28.3478 4.80347 28.1636 4.73845 27.9635C4.67344 27.7634 4.65125 27.5519 4.67331 27.3427L6.35865 11.3427C6.39752 10.9741 6.57148 10.6329 6.84698 10.385C7.12248 10.1371 7.48002 9.99993 7.85065 10H11.5M21.5 10V8C21.5 6.67392 20.9732 5.40215 20.0355 4.46447C19.0978 3.52678 17.8261 3 16.5 3C15.1739 3 13.9021 3.52678 12.9644 4.46447C12.0268 5.40215 11.5 6.67392 11.5 8V10" stroke="#1E90FF" stroke-width="2" stroke-linecap="round" stroke-linejoin="round"/>
<path d="M45.972 26V12.368H40.596V9.2H55.236V12.368H49.86V26H45.972ZM54.2762 26L61.7642 9.2H65.6042L73.1162 26H69.0362L62.8922 11.168H64.4282L58.2602 26H54.2762ZM58.0202 22.4L59.0522 19.448H67.6922L68.7482 22.4H58.0202ZM74.8592 26V9.2H78.0752L87.9872 21.296H86.4272V9.2H90.2672V26H87.0752L77.1392 13.904H78.6992V26H74.8592ZM94.242 26V9.2H101.874C103.698 9.2 105.306 9.552 106.698 10.256C108.09 10.944 109.178 11.912 109.962 13.16C110.746 14.408 111.138 15.888 111.138 17.6C111.138 19.296 110.746 20.776 109.962 22.04C109.178 23.288 108.09 24.264 106.698 24.968C105.306 25.656 103.698 26 101.874 26H94.242ZM98.13 22.808H101.682C102.802 22.808 103.77 22.6 104.586 22.184C105.418 21.752 106.058 21.144 106.506 20.36C106.97 19.576 107.202 18.656 107.202 17.6C107.202 16.528 106.97 15.608 106.506 14.84C106.058 14.056 105.418 13.456 104.586 13.04C103.77 12.608 102.802 12.392 101.682 12.392H98.13V22.808ZM111.628 26L119.116 9.2H122.956L130.468 26H126.388L120.244 11.168H121.78L115.612 26H111.628ZM115.372 22.4L116.404 19.448H125.044L126.1 22.4H115.372Z" fill="black"/>
</svg>
